<svg xmlns="http://www.w3.org/2000/svg" viewBox="0 0 512 512">
  <rect width="512" height="512" rx="100" fill="#2563eb"/>
  <path d="M256 120c-75 0-136 61-136 136s61 136 136 136 136-61 136-136-61-136-136-136zm0 240c-57.4 0-104-46.6-104-104s46.6-104 104-104 104 46.6 104 104-46.6 104-104 104z" fill="white"/>
  <path d="M256 176c-44.2 0-80 35.8-80 80s35.8 80 80 80 80-35.8 80-80-35.8-80-80-80zm40 96h-56v-72h32v40h24v32z" fill="white"/>
  <circle cx="180" cy="140" r="24" fill="#22c55e"/>
  <circle cx="332" cy="140" r="24" fill="#22c55e"/>
  <path d="M160 380h192v32H160z" fill="white" opacity="0.8"/>
</svg>
